<svg width="151" height="25" xmlns="http://www.w3.org/2000/svg"><defs><linearGradient x1="98.123%" y1="2.608%" x2="0%" y2="100%" id="a"><stop stop-color="#322659" offset="0%"/><stop stop-color="#9F7AEA" offset="100%"/></linearGradient></defs><g fill="none" fill-rule="nonzero"><path d="M37.296 19.5c.14 0 .25-.044.333-.133a.457.457 0 00.123-.323v-1.197a.45.45 0 00-.123-.332.45.45 0 00-.333-.124h-1.33c-.43 0-.741-.14-.931-.418-.19-.279-.285-.69-.285-1.235v-4.085h2.375a.44.44 0 00.323-.133.44.44 0 00.133-.323v-1.121a.44.44 0 00-.133-.323.44.44 0 00-.323-.133H34.75V6.466a.45.45 0 00-.123-.333.45.45 0 00-.333-.123h-1.577a.457.457 0 00-.323.123.432.432 0 00-.133.333V9.62H30.76a.44.44 0 00-.323.133.44.44 0 00-.133.323v1.121a.44.44 0 00.133.323.44.44 0 00.323.133h1.501v4.294c0 1.165.291 2.049.874 2.65.583.602 1.45.903 2.603.903h1.558zm5.947.19c.887 0 1.666-.152 2.337-.456.671-.304 1.188-.662 1.549-1.074.36-.411.541-.769.541-1.073a.316.316 0 00-.123-.266.469.469 0 00-.295-.095H45.58c-.152 0-.26.016-.323.047-.063.032-.152.118-.266.257-.456.583-1.045.874-1.767.874-.633 0-1.13-.231-1.491-.694-.361-.462-.555-1.048-.58-1.757v-.152h6.308c.14 0 .253-.044.342-.133a.44.44 0 00.133-.323v-.399c0-1.52-.408-2.736-1.225-3.648-.817-.912-1.98-1.368-3.487-1.368-1.47 0-2.619.456-3.448 1.368-.83.912-1.245 2.16-1.245 3.743l.019.475c.05 1.495.49 2.647 1.32 3.458.83.81 1.954 1.216 3.373 1.216zm2.071-6.004h-4.161v-.038c0-.747.184-1.346.551-1.796.367-.45.874-.674 1.52-.674s1.156.225 1.53.674c.373.45.56 1.049.56 1.796v.038zm8.436 6.004c1.026 0 1.881-.184 2.565-.551.684-.367 1.19-.808 1.52-1.32.33-.514.507-.992.532-1.435a.37.37 0 00-.123-.323.472.472 0 00-.333-.133H56.22c-.14 0-.244.032-.313.095a.756.756 0 00-.181.304c-.19.494-.437.845-.741 1.054-.304.21-.703.314-1.197.314-1.317 0-2.014-.823-2.09-2.47l-.019-.627.019-.703c.025-.836.218-1.457.58-1.862.36-.405.864-.608 1.51-.608.481 0 .877.108 1.188.323.31.215.56.564.75 1.045a.894.894 0 00.19.314c.063.057.165.085.304.085h1.691a.472.472 0 00.332-.133.37.37 0 00.124-.323c-.025-.469-.206-.96-.541-1.473-.336-.512-.85-.946-1.54-1.301-.69-.355-1.535-.532-2.536-.532-1.393 0-2.505.386-3.334 1.159-.83.773-1.27 1.843-1.321 3.211l-.019.76.019.76c.05 1.368.49 2.438 1.32 3.211.83.773 1.942 1.159 3.335 1.159zm8.322-.19c.14 0 .25-.044.332-.133a.457.457 0 00.124-.323v-5.225c0-.722.196-1.292.589-1.71.393-.418.912-.627 1.558-.627.671 0 1.188.206 1.549.618.36.411.541.984.541 1.719v5.225a.44.44 0 00.133.323.463.463 0 00.342.133h1.729c.14 0 .25-.044.333-.133a.457.457 0 00.123-.323v-5.339c0-1.317-.348-2.36-1.045-3.126S66.752 9.43 65.587 9.43c-1.28 0-2.299.456-3.059 1.368V6.466a.45.45 0 00-.123-.333.45.45 0 00-.333-.123h-1.729a.457.457 0 00-.323.123.432.432 0 00-.133.333v12.578a.44.44 0 00.133.323.44.44 0 00.323.133h1.729zM77.633 8.005a.44.44 0 00.323-.133.44.44 0 00.133-.323V6.162a.463.463 0 00-.133-.342.44.44 0 00-.323-.133H75.79a.425.425 0 00-.323.143.472.472 0 00-.133.332v1.387a.44.44 0 00.133.323.44.44 0 00.323.133h1.843zM74.327 23.11c1.216 0 2.134-.313 2.755-.94.62-.628.931-1.511.931-2.651v-9.443a.45.45 0 00-.124-.333.45.45 0 00-.332-.123h-1.672a.457.457 0 00-.323.123.432.432 0 00-.133.333v9.386c0 .532-.092.934-.276 1.207-.183.272-.541.408-1.073.408h-.494c-.14 0-.25.044-.332.133a.457.457 0 00-.124.323v1.121c0 .14.041.25.124.332a.45.45 0 00.332.124h.741zm10.127-3.42c1.482 0 2.628-.38 3.439-1.14.81-.76 1.248-1.811 1.311-3.154.013-.152.019-.43.019-.836 0-.405-.006-.684-.019-.836-.063-1.33-.507-2.378-1.33-3.145-.823-.766-1.963-1.149-3.42-1.149-1.47 0-2.616.383-3.439 1.15-.823.766-1.267 1.814-1.33 3.144l-.019.836.019.836c.063 1.343.5 2.394 1.311 3.154.81.76 1.963 1.14 3.458 1.14zm0-1.919c-.671 0-1.19-.209-1.558-.627-.367-.418-.564-1.032-.589-1.843l-.019-.741.019-.741c.025-.81.222-1.428.589-1.853.367-.424.887-.636 1.558-.636.659 0 1.172.212 1.539.636.367.425.564 1.042.589 1.853.013.127.019.374.019.741s-.006.614-.019.741c-.025.81-.218 1.425-.58 1.843-.36.418-.877.627-1.548.627zm11.894 1.919c1.28 0 2.261-.409 2.945-1.226.684-.816 1.051-1.909 1.102-3.277.013-.165.019-.374.019-.627 0-.266-.006-.475-.019-.627-.038-1.343-.402-2.429-1.093-3.258-.69-.83-1.675-1.245-2.954-1.245-1.229 0-2.198.418-2.907 1.254V6.466a.45.45 0 00-.124-.333.45.45 0 00-.332-.123h-1.653a.457.457 0 00-.323.123.432.432 0 00-.133.333v12.578a.44.44 0 00.133.323.44.44 0 00.323.133h1.52c.14 0 .253-.044.342-.133a.44.44 0 00.133-.323v-.703c.697.9 1.704 1.349 3.021 1.349zm-.722-2.052c-.722 0-1.26-.234-1.615-.703s-.545-1.039-.57-1.71a9.7 9.7 0 01-.019-.722v-.163a8.32 8.32 0 01.019-.578c.025-.633.222-1.172.589-1.615.367-.443.9-.665 1.596-.665 1.355 0 2.077.836 2.166 2.508.013.127.019.317.019.57 0 .253-.006.443-.019.57-.089 1.672-.81 2.508-2.166 2.508zm12.483 1.862c.14 0 .25-.044.333-.133a.457.457 0 00.123-.323v-5.225c0-.722.196-1.292.589-1.71.393-.418.912-.627 1.558-.627.671 0 1.188.206 1.548.618.361.411.542.984.542 1.719v5.225a.44.44 0 00.133.323.463.463 0 00.342.133h1.729c.14 0 .25-.044.332-.133a.457.457 0 00.124-.323v-5.339c0-1.317-.348-2.36-1.045-3.126s-1.628-1.149-2.793-1.149c-1.28 0-2.299.456-3.059 1.368V6.466a.45.45 0 00-.123-.333.45.45 0 00-.333-.123h-1.729a.457.457 0 00-.323.123.432.432 0 00-.133.333v12.578a.44.44 0 00.133.323.44.44 0 00.323.133h1.729zm12.958.19c1.406 0 2.457-.475 3.154-1.425v.779a.44.44 0 00.133.323.44.44 0 00.323.133h1.577c.14 0 .25-.044.332-.133a.457.457 0 00.124-.323v-8.968a.45.45 0 00-.123-.333.45.45 0 00-.333-.123h-1.691a.457.457 0 00-.323.123.432.432 0 00-.133.333v5.225c0 .722-.193 1.292-.58 1.71-.386.418-.908.627-1.567.627-1.355 0-2.033-.779-2.033-2.337v-5.225a.44.44 0 00-.133-.323.44.44 0 00-.323-.133h-1.71a.457.457 0 00-.323.123.432.432 0 00-.133.333v5.339c0 1.33.336 2.375 1.007 3.135.671.76 1.59 1.14 2.755 1.14zm9.823-.19c.14 0 .25-.044.333-.133a.457.457 0 00.123-.323v-5.225c0-.722.196-1.292.589-1.71.393-.418.912-.627 1.558-.627.671 0 1.188.206 1.549.618.36.411.541.984.541 1.719v5.225a.44.44 0 00.133.323.44.44 0 00.323.133h1.71c.14 0 .25-.044.333-.133a.457.457 0 00.123-.323v-5.339c0-1.33-.342-2.375-1.026-3.135-.684-.76-1.609-1.14-2.774-1.14-1.343 0-2.4.475-3.173 1.425v-.779a.45.45 0 00-.124-.333.45.45 0 00-.332-.123h-1.577a.457.457 0 00-.323.123.432.432 0 00-.133.333v8.968a.44.44 0 00.133.323.44.44 0 00.323.133h1.691zm15.181 0c.14 0 .25-.044.333-.133a.457.457 0 00.123-.323v-1.197a.45.45 0 00-.123-.332.45.45 0 00-.333-.124h-1.33c-.43 0-.741-.14-.931-.418-.19-.279-.285-.69-.285-1.235v-4.085h2.375a.44.44 0 00.323-.133.44.44 0 00.133-.323v-1.121a.44.44 0 00-.133-.323.44.44 0 00-.323-.133h-2.375V6.466a.45.45 0 00-.124-.333.45.45 0 00-.332-.123h-1.577a.457.457 0 00-.323.123.432.432 0 00-.133.333V9.62h-1.501a.44.44 0 00-.323.133.44.44 0 00-.133.323v1.121a.44.44 0 00.133.323.44.44 0 00.323.133h1.501v4.294c0 1.165.291 2.049.874 2.65.583.602 1.45.903 2.603.903h1.558z" fill="#2D3748"/><path d="M12.5 0A1.5 1.5 0 0114 1.5l.001 1.618A9.507 9.507 0 0121.882 11H23.5a1.5 1.5 0 010 3l-1.618.001a9.507 9.507 0 01-7.881 7.881L14 23.5a1.5 1.5 0 01-3 0v-1.618A9.507 9.507 0 013.118 14H1.5a1.5 1.5 0 010-3l1.618-.001A9.507 9.507 0 0111 3.118V1.5A1.5 1.5 0 0112.5 0zM11 6.174A6.51 6.51 0 006.174 11H7.5a1.5 1.5 0 010 3H6.174A6.51 6.51 0 0011 18.827V17.5a1.5 1.5 0 013 0v1.326A6.51 6.51 0 0018.827 14H17.5a1.5 1.5 0 010-3h1.326A6.51 6.51 0 0014 6.173L14 7.5a1.5 1.5 0 01-3 0z" fill="url(#a)"/></g></svg>